<svg xmlns="http://www.w3.org/2000/svg" width="16" height="26" viewBox="0 0 16 26">
  <path id="attach" d="M13.818,5.909V19.5c0,2.612-2.6,4.727-5.818,4.727S2.182,22.112,2.182,19.5V4.727c0-1.631,1.629-2.955,3.636-2.955S9.455,3.1,9.455,4.727V17.136A1.344,1.344,0,0,1,8,18.318a1.344,1.344,0,0,1-1.455-1.182V5.909H4.364V17.136c0,1.631,1.629,2.955,3.636,2.955s3.636-1.324,3.636-2.955V4.727C11.636,2.115,9.033,0,5.818,0S0,2.115,0,4.727V19.5C0,23.093,3.578,26,8,26s8-2.907,8-6.5V5.909Z" fill="#dcdce5"/>
</svg>
