<svg xmlns="http://www.w3.org/2000/svg" xmlns:xlink="http://www.w3.org/1999/xlink" width="383.876" height="384.347" viewBox="0 0 383.876 384.347">
  <defs>
    <filter id="패스_18539" x="0" y="0" width="383.876" height="384.347" filterUnits="userSpaceOnUse">
      <feOffset dy="30" input="SourceAlpha"/>
      <feGaussianBlur stdDeviation="30" result="blur"/>
      <feFlood flood-color="#485ffa" flood-opacity="0.161"/>
      <feComposite operator="in" in2="blur"/>
      <feComposite in="SourceGraphic"/>
    </filter>
  </defs>
  <g id="network" transform="translate(1274.691 8367.965)">
    <g id="그룹_8742" data-name="그룹 8742" transform="translate(-1248 -8365)">
      <path id="패스_18551" data-name="패스 18551" d="M390.242,278.394a5.908,5.908,0,0,1-4.2-10.1A147.754,147.754,0,0,0,326.7,23.031a5.916,5.916,0,0,1,3.648-11.237,159.355,159.355,0,0,1,64.091,264.867,5.96,5.96,0,0,1-4.2,1.733Zm0,0" transform="translate(-121.437 -4.328)" fill="#c3caff"/>
      <path id="패스_18552" data-name="패스 18552" d="M157.538,23.462a5.943,5.943,0,0,1-2.277-11.427c3.781-1.574,7.671-3.024,11.56-4.3a5.943,5.943,0,1,1,3.714,11.29c-3.6,1.19-7.2,2.527-10.7,3.981a5.84,5.84,0,0,1-2.3.458Zm34.192-9.8a5.942,5.942,0,0,1-.955-11.807C194.785,1.194,198.9.666,203,.311a5.953,5.953,0,1,1,1.046,11.861c-3.808.333-7.622.813-11.344,1.425a5.389,5.389,0,0,1-.975.066Zm47.37-.517a6.115,6.115,0,0,1-.85-.059c-3.781-.541-7.608-.933-11.376-1.19A5.956,5.956,0,0,1,227.66.012c4.057.269,8.188.7,12.265,1.273a5.943,5.943,0,0,1-.825,11.831Zm0,0" transform="translate(-56.966 0.001)" fill="#c3caff"/>
      <g id="그룹_8740" data-name="그룹 8740" transform="translate(0 33.061)">
        <path id="패스_18553" data-name="패스 18553" d="M107.007,336.613a6.041,6.041,0,0,1-2.057-.361C21.8,305.7-20.722,213.851,9.975,131.1a159.652,159.652,0,0,1,37.059-57.61,5.964,5.964,0,0,1,8.4.146,5.9,5.9,0,0,1,0,8.217,147.748,147.748,0,0,0,53.626,243.3,5.912,5.912,0,0,1-2.057,11.463Zm0,0" transform="translate(0.001 -59.864)" fill="#8f9dfc"/>
        <path id="패스_18554" data-name="패스 18554" d="M229.069,496.963h-.4c-4.111-.267-8.242-.708-12.277-1.288a5.943,5.943,0,0,1,1.707-11.76c3.724.539,7.546.938,11.354,1.188a5.946,5.946,0,0,1-.384,11.885Zm23.734-.237a5.948,5.948,0,1,1-.512-11.885c3.781-.326,7.6-.8,11.344-1.42a5.876,5.876,0,0,1,6.807,4.77l.022.127a5.945,5.945,0,0,1-4.9,6.829c-4.047.664-8.166,1.188-12.248,1.533-.171.02-.345.032-.517.034Zm34.858-7.13a5.943,5.943,0,0,1-1.846-11.589c3.565-1.188,7.184-2.512,10.7-3.981a5.946,5.946,0,1,1,4.564,10.982c-3.8,1.574-7.725,3.019-11.569,4.29a5.958,5.958,0,0,1-1.844.286Zm0,0" transform="translate(-78.889 -211.052)" fill="#8f9dfc"/>
        <path id="패스_18555" data-name="패스 18555" d="M88.953,70.568A17.828,17.828,0,1,1,71.125,52.742,17.829,17.829,0,0,1,88.953,70.568Zm0,0" transform="translate(-19.888 -52.742)" fill="#8f9dfc"/>
      </g>
      <path id="패스_18556" data-name="패스 18556" d="M437.541,419.156a17.827,17.827,0,1,1-17.826-17.828A17.826,17.826,0,0,1,437.541,419.156Zm0,0" transform="translate(-150.91 -151.033)" fill="#c3caff"/>
    </g>
    <g id="global-network" transform="translate(-1194.564 -8307.965)">
      <g id="그룹_8732" data-name="그룹 8732" transform="translate(9.186 0)">
        <g id="그룹_8731" data-name="그룹 8731">
          <g id="그룹_8728" data-name="그룹 8728" transform="translate(0.688 0)">
            <g transform="matrix(1, 0, 0, 1, -90, -60)" filter="url(#패스_18539)">
              <path id="패스_18539-2" data-name="패스 18539" d="M101.938,0A102.174,102.174,0,1,1,0,102.173,102.056,102.056,0,0,1,101.938,0Z" transform="translate(90 60)" fill="#dae1ff"/>
            </g>
          </g>
          <path id="패스_18526" data-name="패스 18526" d="M258.787,10.549q-3.272,0-6.5.2c53.674,3.335,96.17,47.714,96.17,101.971s-42.5,98.637-96.17,101.972q3.222.2,6.5.2c56.7,0,102.665-45.744,102.665-102.173S315.488,10.549,258.787,10.549Z" transform="translate(-156.889 -10.549)" fill="#c3caff"/>
          <g id="그룹_8730" data-name="그룹 8730" transform="translate(0 13.885)">
            <g id="그룹_8729" data-name="그룹 8729">
              <path id="패스_18527" data-name="패스 18527" d="M130.234,43.65a3.247,3.247,0,0,0-3.474,4.786q3.1-2.194,6.371-4.16-1.443-.325-2.9-.626Z" transform="translate(-82.771 -43.583)" fill="#3498ac"/>
              <path id="패스_18528" data-name="패스 18528" d="M21.961,218.641a3.23,3.23,0,0,0,1.229,1.8q.32-2.862.795-5.674A3.248,3.248,0,0,0,21.961,218.641Z" transform="translate(-21.854 -143.646)" fill="#3498ac"/>
              <path id="패스_18529" data-name="패스 18529" d="M122.371,454.851a3.242,3.242,0,0,0,.129.9q.04.138.092.27a.08.08,0,0,1,0,.01,3.246,3.246,0,0,0,5.726,1.4l.082-.025q-3.265-2.08-6.361-4.394Q122.2,453.932,122.371,454.851Z" transform="translate(-80.267 -282.911)" fill="#3498ac"/>
              <path id="패스_18530" data-name="패스 18530" d="M400.373,458.594a3.243,3.243,0,0,0,3.808-2.567q.294-1.508.555-3.018-3.074,2.3-6.322,4.37A3.238,3.238,0,0,0,400.373,458.594Z" transform="translate(-241.593 -282.908)" fill="#3498ac"/>
              <path id="패스_18531" data-name="패스 18531" d="M399.716,46.18a3.248,3.248,0,0,0-3.833-2.529q-1.454.3-2.9.626,3.266,1.964,6.371,4.16A3.236,3.236,0,0,0,399.716,46.18Z" transform="translate(-238.446 -43.584)" fill="#3498ac"/>
              <path id="패스_18532" data-name="패스 18532" d="M461.93,103.837a3.247,3.247,0,0,0-4.828-3.52q2.25,2.772,4.31,5.7Q461.677,104.93,461.93,103.837Z" transform="translate(-275.613 -76.204)" fill="#3498ac"/>
            </g>
            <path id="패스_18533" data-name="패스 18533" d="M181.395,138.086a200.585,200.585,0,0,0,28.187-64.062q-2.043-2.894-4.279-5.635a3.2,3.2,0,0,0-1.489,2.033,194.172,194.172,0,0,1-26.074,61.5,149.09,149.09,0,0,0-13.223-24.53,147.725,147.725,0,0,0-32.73-35.151A141.041,141.041,0,0,1,182.722,50.9a3.212,3.212,0,0,0,2.154-1.559q-3.08-2.169-6.324-4.113A147.241,147.241,0,0,0,126.3,68.211,147.241,147.241,0,0,0,74.044,45.232Q70.8,47.174,67.72,49.345A3.213,3.213,0,0,0,69.874,50.9,141.048,141.048,0,0,1,120.81,72.243a147.726,147.726,0,0,0-32.73,35.151q-.6.9-1.185,1.809a201.869,201.869,0,0,0-60.786,6.391c-.1.026-.194.057-.288.091q-.47,2.78-.789,5.61a3.228,3.228,0,0,0,2.718.509,195.453,195.453,0,0,1,55.3-6.323,146.732,146.732,0,0,0-17.549,99.21q3.07,2.287,6.314,4.345a201.347,201.347,0,0,0,104.2-73.308,140.756,140.756,0,0,1,4.191,70.719,3.192,3.192,0,0,0,.6,2.564q3.221-2.045,6.276-4.321a147.071,147.071,0,0,0-4-67.95,195.245,195.245,0,0,1,34.557,28.511,3.214,3.214,0,0,0,1.017.71q1.419-3.038,2.64-6.183A201.751,201.751,0,0,0,181.395,138.086ZM126.3,76.152a141.192,141.192,0,0,1,32.846,34.792,142.77,142.77,0,0,1,11.646,21.149,200.28,200.28,0,0,0-76.493-22.4A141.086,141.086,0,0,1,126.3,76.152ZM71.65,212.373a140.38,140.38,0,0,1,18.688-96.54,193.272,193.272,0,0,1,41.154,7.273,195.256,195.256,0,0,1,40.641,17.027A194.913,194.913,0,0,1,71.65,212.373Z" transform="translate(-23.696 -44.539)" fill="#c3caff"/>
          </g>
        </g>
      </g>
      <g id="그룹_8733" data-name="그룹 8733" transform="translate(0 7.212)">
        <ellipse id="타원_71" data-name="타원 71" cx="9.873" cy="9.921" rx="9.873" ry="9.921" transform="translate(101.854 23.801)" fill="#485ffa"/>
        <ellipse id="타원_72" data-name="타원 72" cx="9.873" cy="9.921" rx="9.873" ry="9.921" transform="translate(63.735 66.61)" fill="#485ffa"/>
        <ellipse id="타원_73" data-name="타원 73" cx="9.873" cy="9.921" rx="9.873" ry="9.921" transform="translate(152.581 91.64)" fill="#485ffa"/>
        <path id="패스_18534" data-name="패스 18534" d="M116.937,453.61a9.921,9.921,0,1,1,9.873-9.921A9.908,9.908,0,0,1,116.937,453.61Z" transform="translate(-62.419 -265.082)" fill="#485ffa"/>
        <path id="패스_18535" data-name="패스 18535" d="M392.678,454.952a9.922,9.922,0,1,1,9.873-9.922A9.908,9.908,0,0,1,392.678,454.952Z" transform="translate(-223.359 -265.86)" fill="#485ffa"/>
        <path id="패스_18536" data-name="패스 18536" d="M447.443,102.979a9.921,9.921,0,1,1,9.873-9.921A9.909,9.909,0,0,1,447.443,102.979Z" transform="translate(-255.105 -59.839)" fill="#485ffa"/>
        <path id="패스_18537" data-name="패스 18537" d="M387.812,47.55a9.921,9.921,0,1,1,9.873-9.921A9.908,9.908,0,0,1,387.812,47.55Z" transform="translate(-220.538 -27.708)" fill="#485ffa"/>
        <path id="패스_18538" data-name="패스 18538" d="M116.937,47.55a9.921,9.921,0,1,1,9.873-9.921A9.908,9.908,0,0,1,116.937,47.55Z" transform="translate(-62.419 -27.708)" fill="#485ffa"/>
        <ellipse id="타원_74" data-name="타원 74" cx="9.873" cy="9.921" rx="9.873" ry="9.921" transform="translate(0 71.662)" fill="#485ffa"/>
      </g>
    </g>
  </g>
</svg>
